<svg width="100%" height="100%" viewBox="0 0 310 235" version="1.1" xmlns="http://www.w3.org/2000/svg" xmlns:xlink="http://www.w3.org/1999/xlink" xml:space="preserve" xmlns:serif="http://www.serif.com/" style="fill-rule:evenodd;clip-rule:evenodd;stroke-linejoin:round;stroke-miterlimit:1.41421;"><g><g><path d="M0.841,117.228c0,-27.701 22.49,-50.191 50.192,-50.191c6.029,0 11.812,1.065 17.169,3.018c-20.261,8.134 -35.452,26.319 -35.484,47.173c0,0 0.136,2.987 0.136,2.987c1.566,18.972 18.198,29.742 34.909,24.898l0.439,19.288c-5.357,1.953 -11.14,3.019 -17.169,3.019c-6.926,0 -13.525,-1.406 -19.529,-3.947c0,0 -0.106,-0.045 -0.106,-0.045l0,0l-0.155,-0.073l-1.962,-0.888l-0.804,-0.411l-0.381,-0.18l-0.329,-0.184c-0.951,-0.498 -1.884,-1.025 -2.805,-1.577l-0.032,-0.018l-0.13,-0.085l-1.822,-1.169l-0.719,-0.511l-0.349,-0.231l-0.3,-0.231c-0.865,-0.626 -1.709,-1.279 -2.536,-1.952l-0.026,-0.02l-0.103,-0.092l-1.653,-1.431l-0.627,-0.598l-0.311,-0.277l-0.267,-0.274c-0.764,-0.741 -1.505,-1.506 -2.229,-2.29l-0.019,-0.02l-0.078,-0.092l-1.453,-1.677l-0.527,-0.671l-0.269,-0.318l-0.227,-0.313c-0.648,-0.837 -1.27,-1.696 -1.886,-2.591l-0.013,-0.018l-0.053,-0.085l-1.221,-1.905l-0.422,-0.733l-0.22,-0.353l-0.183,-0.347c-0.527,-0.932 -1.025,-1.883 -1.504,-2.856l-0.008,-0.015l-0.032,-0.072l-0.955,-2.113l-0.309,-0.783l-0.168,-0.383l-0.132,-0.377c-0.394,-1.016 -0.754,-2.049 -1.085,-3.084l-0.004,-0.011l-0.014,-0.053l-0.654,-2.3l-0.19,-0.822l-0.11,-0.408l-0.077,-0.402c-0.244,-1.079 -0.451,-2.171 -0.626,-3.275l-0.002,-0.006l-0.003,-0.029l-0.314,-2.467l-0.065,-0.85l-0.048,-0.427l-0.016,-0.424c-0.091,-1.124 -0.13,-2.271 -0.13,-3.428l0,0Z"/><rect x="134.866" y="67.037" width="33.461" height="100.383" style="fill-rule:nonzero;"/><path d="M78.917,167.42l33.461,0c0,0 0,-61.774 0,-88.403c0,-3.178 -1.262,-6.225 -3.509,-8.472c-2.246,-2.246 -5.294,-3.508 -8.471,-3.508c-9.602,0 -21.481,0 -21.481,0l0,100.383Z" style="fill-rule:nonzero;"/><path d="M225.002,118.555c-0.701,0.883 -1.082,1.978 -1.082,3.105c-0.005,8.489 -0.005,45.76 -0.005,45.76l-33.461,-0.362c0,0 0,-61.483 0,-88.041c0,-3.165 1.266,-6.199 3.517,-8.425c2.25,-2.227 5.298,-3.46 8.463,-3.426c9.603,0.104 21.481,0.233 21.481,0.233l0,18.294c8.104,-10.016 19.981,-16.856 33.461,-18.349l0,31.935c-12.68,1.667 -24.08,8.916 -32.374,19.276Z"/><path d="M269.242,167.42l32.987,0l-0.474,-100.383l-32.987,0l0.474,100.383Z" style="fill-rule:nonzero;"/></g><path d="M309.159,23.775l-23.66,-23.661l-23.661,23.661l23.661,23.66l23.66,-23.66Z"/><path d="M175.257,210.682l-23.66,-23.661l-23.661,23.661l23.661,23.66l23.66,-23.66Z"/></g></svg>