<?xml version="1.0" encoding="UTF-8" standalone="no"?>
<!DOCTYPE svg PUBLIC "-//W3C//DTD SVG 1.1//EN" "http://www.w3.org/Graphics/SVG/1.1/DTD/svg11.dtd">
<svg id="airi-hand-pull" width="100%" height="100%" viewBox="0 0 1440 400" version="1.1" xmlns="http://www.w3.org/2000/svg" xmlns:xlink="http://www.w3.org/1999/xlink" xml:space="preserve" xmlns:serif="http://www.serif.com/" style="fill-rule:evenodd;clip-rule:evenodd;stroke-linejoin:round;stroke-miterlimit:1.41421;">
    <path id="top-crease" d="M1440,400.346l-1440,0c0,0 -0.002,-58.963 0,-58.964c53.019,-15.592 110.741,-38.585 156.331,-72.036c196.766,108.589 974.328,110.14 1283.67,105.918c0.001,0 0,25.082 0,25.082Z" />
    <g id="reaching">
        <g id="arm">
            <path d="M52.963,190.473c-1.473,-0.345 -2.143,-1.775 -3.216,-3.375c-9.017,-13.446 -29.834,-35.062 -51.436,-58.289c-26.68,-28.686 -55.536,-59.051 -68.231,-76.816c-20.099,-28.125 47.086,-64.222 65.476,-51.696c0,0 3.307,0.799 4.443,2.049c5.096,5.604 15.322,25.072 23.558,39c13.651,23.084 33.454,63.552 58.346,99.504c9.919,14.327 -16.784,55.756 -28.94,49.623Z"/>
        </g>
        <g id="hand">
            <path id="thumb-finger" d="M43.915,154.238l11.352,-33.196c0,0 49.815,2.356 64.712,0.273c17.752,-2.483 52.968,56.14 56.966,64.864c7.885,17.206 -9.018,84.075 -9.018,84.075c0,0 -9.955,-6.167 -10.583,-22.674c-0.521,-13.673 2.19,-37.78 1.619,-48.965c-8.361,-6.182 -14.631,-12.483 -22.48,-17.933c-6.428,-2.171 -13.098,-1.838 -18.877,-3.498c-7.638,16.339 -9.931,29.949 -6.386,41.126c7.78,9.776 14.376,13.439 25.222,19.817c21.059,12.383 12.343,33.241 12.343,33.241c0,0 -24.166,-11.272 -41.531,-19.372c-3.558,-1.66 -19.27,-17.033 -32.047,-28.328c-21.323,-18.849 -35.563,-54.633 -31.53,-68.686l-0.016,0.001l0.174,-0.51c0.026,-0.079 0.053,-0.157 0.08,-0.235Z"/>
            <path id="middle-finger" d="M69.42,158.922l22.515,-33.581c0,0 39.258,-8.631 52.138,-3.692c15.347,5.884 52.371,39.177 54.315,45.646c2.85,9.478 10.472,81.164 10.472,81.164c0,0 -18.582,1.457 -21.407,-23.921c-1.223,-10.986 -5.335,-26.67 -9.278,-46.386c-0.483,-2.414 -22.464,-16.191 -24.69,-17.773"/>
            <path id="ring-finger" d="M71.307,134.446l27.802,-12.271c0,0 30.799,-2.313 43.955,-1.06c15.676,1.492 56.906,22.701 60.263,28.194c4.92,8.048 15.408,68.644 15.408,68.644c0,0 -11.861,2.669 -19.483,-15.775c-4.034,-9.761 -6.978,-39.138 -8.559,-42.448c-3.956,-1.251 -30.037,-10.502 -32.485,-11.393"/>
            <path id="little-finger" d="M140.32,138.716c11.396,5.268 -28.393,-16.627 -17.882,-17.381c15.326,-1.1 60.909,-4.92 65.589,-2.944c6.858,2.894 44.66,31.489 44.66,31.489c0,0 -6.838,9.975 -16.906,4.02c-7.179,-4.246 -17.882,-10.761 -31.194,-17.982c-1.138,-0.617 -38.028,0.718 -44.267,2.798Z"/>
        </g>
    </g>
</svg>
