<?xml version="1.0" encoding="UTF-8" standalone="no"?>
<!DOCTYPE svg PUBLIC "-//W3C//DTD SVG 1.1//EN" "http://www.w3.org/Graphics/SVG/1.1/DTD/svg11.dtd">
<svg id="cropped-airi-hand-pull" width="100%" height="100%" viewBox="0 0 800 401" version="1.1" xmlns="http://www.w3.org/2000/svg" xmlns:xlink="http://www.w3.org/1999/xlink" xml:space="preserve" xmlns:serif="http://www.serif.com/" style="fill-rule:evenodd;clip-rule:evenodd;stroke-linejoin:round;stroke-miterlimit:1.41421;">
    <path d="M1441,401.748l-1440,0c0,0 -0.002,-58.964 0,-58.964c53.019,-15.592 110.741,-38.586 156.331,-72.036c196.766,108.588 974.328,110.139 1283.67,105.918c0.001,-0.001 0,25.082 0,25.082Z" />
    <g id="reaching">
        <g id="arm">
            <path d="M53.963,191.875c-1.473,-0.345 -2.143,-1.776 -3.216,-3.376c-9.017,-13.446 -29.834,-35.061 -51.436,-58.288c-26.68,-28.687 -55.536,-59.052 -68.231,-76.816c-20.099,-28.125 47.086,-64.222 65.476,-51.697c0,0 3.307,0.8 4.443,2.05c5.096,5.604 15.322,25.071 23.558,39c13.651,23.084 33.454,63.552 58.346,99.504c9.919,14.326 -16.784,55.756 -28.94,49.623Z"/>
        </g>
        <g id="hand">
            <path id="thumb-finger" d="M44.915,155.64l11.352,-33.196c0,0 49.815,2.356 64.712,0.272c17.752,-2.483 52.968,56.14 56.966,64.864c7.885,17.206 -9.018,84.075 -9.018,84.075c0,0 -9.955,-6.167 -10.583,-22.673c-0.521,-13.673 2.19,-37.78 1.619,-48.965c-8.361,-6.182 -14.631,-12.484 -22.48,-17.934c-6.428,-2.171 -13.098,-1.837 -18.877,-3.497c-7.638,16.339 -9.931,29.948 -6.386,41.125c7.78,9.777 14.376,13.44 25.222,19.817c21.059,12.384 12.343,33.241 12.343,33.241c0,0 -24.166,-11.272 -41.531,-19.371c-3.558,-1.66 -19.27,-17.034 -32.047,-28.328c-21.323,-18.849 -35.563,-54.633 -31.53,-68.686l-0.016,0l0.174,-0.51c0.026,-0.079 0.053,-0.157 0.08,-0.234Z"/>
            <path id="middle-finger" d="M70.42,160.324l22.515,-33.581c0,0 39.258,-8.632 52.138,-3.693c15.347,5.885 52.371,39.178 54.315,45.646c2.85,9.479 10.472,81.164 10.472,81.164c0,0 -18.582,1.457 -21.407,-23.921c-1.223,-10.986 -5.335,-26.67 -9.278,-46.386c-0.483,-2.413 -22.464,-16.191 -24.69,-17.773"/>
            <path id="ring-finger" d="M72.307,135.847l27.802,-12.27c0,0 30.799,-2.313 43.955,-1.061c15.676,1.493 56.906,22.701 60.263,28.194c4.92,8.048 15.408,68.644 15.408,68.644c0,0 -11.861,2.669 -19.483,-15.775c-4.034,-9.76 -6.978,-39.138 -8.559,-42.448c-3.956,-1.251 -30.037,-10.501 -32.485,-11.393"/>
            <path id="little-finger" d="M141.32,140.117c11.396,5.269 -28.393,-16.626 -17.882,-17.381c15.326,-1.099 60.909,-4.919 65.589,-2.944c6.858,2.895 44.66,31.489 44.66,31.489c0,0 -6.838,9.976 -16.906,4.021c-7.179,-4.247 -17.882,-10.761 -31.194,-17.982c-1.138,-0.618 -38.028,0.718 -44.267,2.797Z"/>
        </g>
    </g>
</svg>
