<?xml version="1.0" encoding="UTF-8" standalone="no"?><!DOCTYPE svg PUBLIC "-//W3C//DTD SVG 1.1//EN" "http://www.w3.org/Graphics/SVG/1.1/DTD/svg11.dtd"><svg width="100%" height="100%" viewBox="0 0 1440 276" version="1.1" xmlns="http://www.w3.org/2000/svg" xmlns:xlink="http://www.w3.org/1999/xlink" xml:space="preserve" xmlns:serif="http://www.serif.com/" style="fill-rule:evenodd;clip-rule:evenodd;stroke-linejoin:round;stroke-miterlimit:1.41421;"><rect id="drop" x="0" y="0.507" width="1440" height="275" style="fill:none;"/><clipPath id="_clip1"><rect x="0" y="0.507" width="1440" height="275"/></clipPath><g clip-path="url(#_clip1)"><path id="ink-drip" d="M0.005,112.399c-0.022,0.001 0.001,-111.892 0.001,-111.892l1439.91,0c0,0 0.182,120.122 0,119.992c-117.726,5.892 -283.194,21.73 -353.948,67.452c-199.614,-82.834 -800.98,-81.337 -1085.96,-75.552Z" style="fill:url(#_Linear2);"/><path id="ink-droplet" d="M1085.69,205.507c0,0 21.311,34.003 21.311,48.576c0,11.762 -9.549,21.311 -21.311,21.311c-11.762,0 -21.312,-9.549 -21.312,-21.311c0,-14.573 21.312,-48.576 21.312,-48.576Z"/></g><defs><linearGradient id="_Linear2" x1="0" y1="0" x2="1" y2="0" gradientUnits="userSpaceOnUse" gradientTransform="matrix(99.4043,422.943,422.943,-99.4043,158.771,-1219.11)"><stop offset="0" style="stop-color:#000;stop-opacity:1"/><stop offset="1" style="stop-color:#040408;stop-opacity:1"/></linearGradient></defs></svg>