<?xml version="1.0" encoding="UTF-8" standalone="no"?>
<!DOCTYPE svg PUBLIC "-//W3C//DTD SVG 1.1//EN" "http://www.w3.org/Graphics/SVG/1.1/DTD/svg11.dtd">
<svg width="10em" height="10em" viewBox="0 0 620 620" version="1.1" xmlns="http://www.w3.org/2000/svg" xmlns:xlink="http://www.w3.org/1999/xlink" xml:space="preserve" xmlns:serif="http://www.serif.com/" style="fill-rule:evenodd;clip-rule:evenodd;stroke-linejoin:bevel;stroke-miterlimit:1.41421;">
    <rect id="header-logo-image" x="0" y="0" width="620" height="620" style="fill:none;"/>
    <g>
        <path d="M293.153,384.648l-11.23,60.497c0,0 34.789,-33.486 50.842,-56.75c-4.597,16.117 -10.791,50.616 -10.791,50.616c0,0 32.112,-60.088 45.999,-62.877c1.131,14.926 -12.218,58.041 -12.624,57.765c-0.406,-0.275 49.381,-30.533 59.563,-108.133c-10.246,30.203 -21.403,102.697 -21.42,102.292c-0.017,-0.406 42.627,-46.66 42.627,-46.66l-12.545,-11.817l6.699,18.249l-11.314,21.71l11.723,12.822l32.504,-49.035" style="fill:none;stroke:white;stroke-width:9.52px;"/>
        <path d="M245.03,328.255c0,0 -84.675,17.419 -94.48,15.719c-9.806,-1.7 16.622,27.43 16.622,27.43c0,0 72.653,-101.154 75.98,-120.299c-1.355,18.836 -14.269,109.599 -14.269,109.599c0,0 50.72,-61.274 50.22,-61.398c-0.5,-0.124 -7.928,53.672 -7.928,53.672c0,0 41.982,-48.537 43.125,-59.063c4.114,3.073 14.938,0.211 14.938,0.211c0,0 -10.847,43.058 -9.702,50.196c8.562,-11.513 49.567,-57.551 49.567,-57.551l-10.355,54.044l42.006,-50.148" style="fill:none;stroke:white;stroke-width:9.52px;"/>
    </g>
    <g id="reaching">
        <g id="arm">
            <path d="M440,216.294c1.496,0.227 2.65,-0.852 4.24,-1.939c13.368,-9.133 40.725,-21.466 69.411,-35.004c35.429,-16.72 73.501,-34.19 91.888,-45.966c29.11,-18.644 -20.464,-78.181 -42.191,-73.385c0,0 -2.757,0.575 -4.276,1.313c-6.813,3.31 -23.54,17.585 -36.362,27.455c-21.251,16.36 -54.672,46.573 -91.141,70.703c-14.532,9.615 -5.133,58 8.431,56.823Z"/>
        </g>
        <g id="hand">
            <path id="thumb-finger" d="M461.863,186.015l1.795,-35.037c0,0 -47.123,-16.322 -60.181,-23.792c-15.558,-8.901 -70.034,32.441 -76.987,39.055c-13.714,13.045 -22.867,81.407 -22.867,81.407c0,0 11.534,-2.027 18.251,-17.118c5.563,-12.501 12.003,-35.889 16.689,-46.062c10.06,-2.633 18.222,-6.153 27.534,-8.297c6.774,0.373 12.843,3.161 18.826,3.767c1.02,18.007 -1.908,31.494 -9.352,40.554c-10.856,6.186 -18.341,7.136 -30.779,9.027c-24.153,3.672 -23.811,26.275 -23.811,26.275c0,0 26.624,-1.486 45.755,-2.553c3.921,-0.219 24.22,-8.655 40.279,-14.393c26.8,-9.577 53.316,-37.509 54.793,-52.054l0.015,0.006l0.028,-0.538c0.005,-0.083 0.009,-0.165 0.012,-0.247Z"/>
            <path id="middle-finger" d="M436.444,180.887l-8.426,-39.543c0,0 -33.241,-22.6 -47.034,-22.8c-16.434,-0.239 -63.178,16.914 -67.386,22.197c-6.168,7.742 -39.88,71.463 -39.88,71.463c0,0 16.711,8.257 28.763,-14.254c5.217,-9.745 14.862,-22.779 25.849,-39.618c1.345,-2.062 26.871,-6.686 29.526,-7.328"/>
            <path id="ring-finger" d="M443.787,157.461l-21.253,-21.722c0,0 -27.734,-13.59 -40.414,-17.316c-15.109,-4.439 -61.267,-0.067 -66.425,3.785c-7.558,5.644 -39.809,58.005 -39.809,58.005c0,0 10.019,6.885 23.949,-7.407c7.371,-7.563 21.021,-33.743 23.718,-36.228c4.137,0.307 31.788,1.41 34.393,1.492"/>
            <path id="little-finger" d="M378.127,135.784c-12.537,0.657 32.539,-4.887 23.06,-9.493c-13.82,-6.715 -54.72,-27.198 -59.8,-27.103c-7.442,0.139 -53.162,12.641 -53.162,12.641c0,0 2.642,11.803 14.202,10.015c8.243,-1.275 20.6,-3.347 35.642,-5.105c1.286,-0.151 35.039,14.796 40.058,19.045Z"/>
        </g>
    </g>
    <path d="M281.062,477.819c0,0 -21.311,34.003 -21.311,48.576c0,11.762 9.549,21.311 21.311,21.311c11.762,0 21.312,-9.549 21.312,-21.311c0,-14.573 -21.312,-48.576 -21.312,-48.576Z"/>
</svg>

