<?xml version="1.0" encoding="UTF-8" standalone="no"?>
<!DOCTYPE svg PUBLIC "-//W3C//DTD SVG 1.1//EN" "http://www.w3.org/Graphics/SVG/1.1/DTD/svg11.dtd">
<svg width="100%" height="100%" viewBox="0 0 49 48" version="1.1" xmlns="http://www.w3.org/2000/svg" xmlns:xlink="http://www.w3.org/1999/xlink" xml:space="preserve" xmlns:serif="http://www.serif.com/" style="fill-rule:evenodd;clip-rule:evenodd;stroke-linejoin:round;stroke-miterlimit:1.41421;">
    <g transform="matrix(1,0,0,1,-14050,-1883)">
        <g transform="matrix(1,0,0,0.999231,1530.21,0.769925)">
            <g id="spinner" transform="matrix(0.494386,0,0,0.825737,11884.9,1113.91)">
                <g>
                    <g id="circle-text" transform="matrix(0.201137,-3.10788e-33,0,0.120435,499.82,676.75)">
                        <g transform="matrix(-6.53641,2.98131,-3.12287,-6.24013,36379.5,3673.43)">
                            <path d="M3934.21,2118.18L3934.21,2119.42C3933.75,2118.59 3932.9,2118.05 3931.85,2118.05C3930.28,2118.05 3929,2119.3 3929,2120.93C3929,2122.55 3930.28,2123.8 3931.85,2123.8C3932.9,2123.8 3933.75,2123.26 3934.21,2122.43L3934.21,2123.68L3934.77,2123.68L3934.77,2118.18L3934.21,2118.18ZM3931.89,2123.27C3930.58,2123.27 3929.56,2122.23 3929.56,2120.93C3929.56,2119.62 3930.58,2118.58 3931.89,2118.58C3933.2,2118.58 3934.21,2119.62 3934.21,2120.93C3934.21,2122.23 3933.2,2123.27 3931.89,2123.27Z" style="fill:white;fill-rule:nonzero;"/>
                        </g>
                        <g transform="matrix(-6.00382,3.86979,-4.05352,-5.73168,36193.1,-831.414)">
                            <path d="M3923.33,2120.08C3923.57,2120.08 3923.77,2119.88 3923.77,2119.64C3923.77,2119.41 3923.57,2119.21 3923.33,2119.21C3923.09,2119.21 3922.89,2119.41 3922.89,2119.64C3922.89,2119.88 3923.09,2120.08 3923.33,2120.08ZM3923.06,2126.91L3923.61,2126.91L3923.61,2121.41L3923.06,2121.41L3923.06,2126.91Z" style="fill:white;fill-rule:nonzero;"/>
                        </g>
                        <g transform="matrix(-5.59415,4.39381,-4.60243,-5.34058,35735.2,-3695.28)">
                            <path d="M3921.72,2123.71L3921.72,2122.63L3921.17,2122.63L3921.17,2128.13L3921.72,2128.13L3921.72,2125.07C3921.72,2123.67 3922.61,2123.08 3923.55,2123.08L3923.55,2122.55C3922.81,2122.55 3922.09,2122.84 3921.72,2123.71Z" style="fill:white;fill-rule:nonzero;"/>
                        </g>
                        <g transform="matrix(-5.22769,4.78748,-5.01479,-4.99074,35153.7,-5943.56)">
                            <path d="M3918.74,2123.54C3918.99,2123.54 3919.18,2123.34 3919.18,2123.1C3919.18,2122.87 3918.99,2122.67 3918.74,2122.67C3918.5,2122.67 3918.3,2122.87 3918.3,2123.1C3918.3,2123.34 3918.5,2123.54 3918.74,2123.54ZM3918.47,2130.37L3919.02,2130.37L3919.02,2124.87L3918.47,2124.87L3918.47,2130.37Z" style="fill:white;fill-rule:nonzero;"/>
                        </g>
                        <g transform="matrix(-3.69131,5.95054,-6.23307,-3.52399,31708.4,-13513.6)">
                            <path d="M3912.67,2130.72C3912.91,2130.72 3913.11,2130.52 3913.11,2130.28C3913.11,2130.05 3912.91,2129.85 3912.67,2129.85C3912.43,2129.85 3912.23,2130.05 3912.23,2130.28C3912.23,2130.52 3912.43,2130.72 3912.67,2130.72ZM3912.39,2137.55L3912.95,2137.55L3912.95,2132.05L3912.39,2132.05L3912.39,2137.55Z" style="fill:white;fill-rule:nonzero;"/>
                        </g>
                        <g transform="matrix(-2.90679,6.33456,-6.63532,-2.77503,29499.3,-16590.4)">
                            <path d="M3913.65,2133.82C3912.81,2133.82 3912.1,2134.17 3911.68,2134.98L3911.68,2133.94L3911.13,2133.94L3911.13,2139.44L3911.68,2139.44L3911.68,2136.53C3911.68,2135.05 3912.53,2134.34 3913.61,2134.34C3914.64,2134.34 3915.23,2135 3915.23,2136.02L3915.23,2139.44L3915.79,2139.44L3915.79,2136.02C3915.79,2134.68 3914.96,2133.82 3913.65,2133.82Z" style="fill:white;fill-rule:nonzero;"/>
                        </g>
                        <g transform="matrix(-1.76116,6.70825,-7.02675,-1.68133,25874.6,-20326)">
                            <path d="M3912.87,2145.12L3909.8,2142.26L3912.76,2139.62L3911.99,2139.62L3909.2,2142.12L3909.2,2137.42L3908.65,2137.42L3908.65,2145.12L3909.2,2145.12L3909.2,2142.42L3912.12,2145.12L3912.87,2145.12Z" style="fill:white;fill-rule:nonzero;"/>
                        </g>
                        <g transform="matrix(0.781508,6.87538,-7.20182,0.746084,16390.2,-26096.5)">
                            <path d="M3911.54,2151.98L3911.54,2153.22C3911.08,2152.4 3910.23,2151.86 3909.17,2151.86C3907.61,2151.86 3906.33,2153.1 3906.33,2154.73C3906.33,2156.36 3907.61,2157.6 3909.17,2157.6C3910.23,2157.6 3911.08,2157.06 3911.54,2156.24L3911.54,2157.48L3912.1,2157.48L3912.1,2151.98L3911.54,2151.98ZM3909.22,2157.07C3907.91,2157.07 3906.89,2156.04 3906.89,2154.73C3906.89,2153.42 3907.91,2152.39 3909.22,2152.39C3910.53,2152.39 3911.54,2153.42 3911.54,2154.73C3911.54,2156.04 3910.53,2157.07 3909.22,2157.07Z" style="fill:white;fill-rule:nonzero;"/>
                        </g>
                        <g transform="matrix(1.73749,6.71387,-7.03264,1.65874,12345.9,-27404.1)">
                            <path d="M3907.91,2157.67C3908.15,2157.67 3908.35,2157.47 3908.35,2157.23C3908.35,2157 3908.15,2156.8 3907.91,2156.8C3907.67,2156.8 3907.47,2157 3907.47,2157.23C3907.47,2157.47 3907.67,2157.67 3907.91,2157.67ZM3907.64,2164.5L3908.19,2164.5L3908.19,2159L3907.64,2159L3907.64,2164.5Z" style="fill:white;fill-rule:nonzero;"/>
                        </g>
                        <g transform="matrix(2.35138,6.54128,-6.85185,2.2448,9573.68,-27991.4)">
                            <path d="M3908.68,2162.27L3908.68,2161.19L3908.14,2161.19L3908.14,2166.69L3908.68,2166.69L3908.68,2163.64C3908.68,2162.23 3909.58,2161.64 3910.52,2161.64L3910.52,2161.12C3909.77,2161.12 3909.06,2161.4 3908.68,2162.27Z" style="fill:white;fill-rule:nonzero;"/>
                        </g>
                        <g transform="matrix(2.84282,6.36096,-6.66298,2.71396,7271.38,-28296.7)">
                            <path d="M3909.56,2163.18C3909.8,2163.18 3910,2162.98 3910,2162.74C3910,2162.51 3909.8,2162.31 3909.56,2162.31C3909.32,2162.31 3909.12,2162.51 3909.12,2162.74C3909.12,2162.98 3909.32,2163.18 3909.56,2163.18ZM3909.28,2170.01L3909.84,2170.01L3909.84,2164.51L3909.28,2164.51L3909.28,2170.01Z" style="fill:white;fill-rule:nonzero;"/>
                        </g>
                        <g transform="matrix(4.50669,5.41449,-5.67156,4.30241,-1323.96,-28047.6)">
                            <path d="M3914.11,2171.41C3914.35,2171.41 3914.55,2171.21 3914.55,2170.97C3914.55,2170.74 3914.35,2170.54 3914.11,2170.54C3913.87,2170.54 3913.67,2170.74 3913.67,2170.97C3913.67,2171.21 3913.87,2171.41 3914.11,2171.41ZM3913.84,2178.24L3914.39,2178.24L3914.39,2172.74L3913.84,2172.74L3913.84,2178.24Z" style="fill:white;fill-rule:nonzero;"/>
                        </g>
                        <g transform="matrix(5.175,4.83938,-5.06915,4.94043,-5239.22,-27189.6)">
                            <path d="M3917.66,2174.46C3916.81,2174.46 3916.1,2174.81 3915.69,2175.63L3915.69,2174.58L3915.14,2174.58L3915.14,2180.08L3915.69,2180.08L3915.69,2177.18C3915.69,2175.69 3916.53,2174.99 3917.61,2174.99C3918.64,2174.99 3919.23,2175.65 3919.23,2176.66L3919.23,2180.08L3919.79,2180.08L3919.79,2176.66C3919.79,2175.33 3918.96,2174.46 3917.66,2174.46Z" style="fill:white;fill-rule:nonzero;"/>
                        </g>
                        <g transform="matrix(5.98982,3.8895,-4.07418,5.71832,-10574.5,-25179.5)">
                            <path d="M3923.8,2184.43L3920.73,2181.57L3923.69,2178.93L3922.92,2178.93L3920.14,2181.43L3920.14,2176.74L3919.59,2176.74L3919.59,2184.43L3920.14,2184.43L3920.14,2181.73L3923.06,2184.43L3923.8,2184.43Z" style="fill:white;fill-rule:nonzero;"/>
                        </g>
                        <g transform="matrix(7.10332,1.35677,-1.42118,6.78134,-20723.2,-17590.5)">
                            <path d="M3935.39,2184.92L3935.39,2186.16C3934.93,2185.34 3934.08,2184.8 3933.03,2184.8C3931.46,2184.8 3930.18,2186.04 3930.18,2187.67C3930.18,2189.3 3931.46,2190.54 3933.03,2190.54C3934.08,2190.54 3934.93,2190 3935.39,2189.18L3935.39,2190.42L3935.95,2190.42L3935.95,2184.92L3935.39,2184.92ZM3933.07,2190.01C3931.76,2190.01 3930.74,2188.98 3930.74,2187.67C3930.74,2186.36 3931.76,2185.33 3933.07,2185.33C3934.38,2185.33 3935.39,2186.36 3935.39,2187.67C3935.39,2188.98 3934.38,2190.01 3933.07,2190.01Z" style="fill:white;fill-rule:nonzero;"/>
                        </g>
                        <g transform="matrix(7.23682,0.309905,-0.324619,6.90879,-23649.3,-13758)">
                            <path d="M3937.83,2184.78C3938.07,2184.78 3938.26,2184.58 3938.26,2184.34C3938.26,2184.11 3938.07,2183.91 3937.83,2183.91C3937.58,2183.91 3937.39,2184.11 3937.39,2184.34C3937.39,2184.58 3937.58,2184.78 3937.83,2184.78ZM3937.55,2191.61L3938.1,2191.61L3938.1,2186.11L3937.55,2186.11L3937.55,2191.61Z" style="fill:white;fill-rule:nonzero;"/>
                        </g>
                        <g transform="matrix(7.23388,-0.367197,0.384631,6.90598,-25192.2,-11085.4)">
                            <path d="M3940.34,2187.34L3940.34,2186.26L3939.79,2186.26L3939.79,2191.76L3940.34,2191.76L3940.34,2188.7C3940.34,2187.29 3941.23,2186.71 3942.18,2186.71L3942.18,2186.18C3941.43,2186.18 3940.71,2186.47 3940.34,2187.34Z" style="fill:white;fill-rule:nonzero;"/>
                        </g>
                        <g transform="matrix(7.17898,-0.925203,0.969131,6.85357,-26256.6,-8769.39)">
                            <path d="M3943.57,2184.73C3943.81,2184.73 3944.01,2184.53 3944.01,2184.29C3944.01,2184.06 3943.81,2183.86 3943.57,2183.86C3943.32,2183.86 3943.12,2184.06 3943.12,2184.29C3943.12,2184.53 3943.32,2184.73 3943.57,2184.73ZM3943.29,2191.56L3943.84,2191.56L3943.84,2186.06L3943.29,2186.06L3943.29,2191.56Z" style="fill:white;fill-rule:nonzero;"/>
                        </g>
                        <g transform="matrix(6.58477,-2.88268,3.01954,6.2863,-28394.6,215.878)">
                            <path d="M3952.69,2182.43C3952.93,2182.43 3953.13,2182.23 3953.13,2181.99C3953.13,2181.75 3952.93,2181.56 3952.69,2181.56C3952.45,2181.56 3952.25,2181.75 3952.25,2181.99C3952.25,2182.23 3952.45,2182.43 3952.69,2182.43ZM3952.41,2189.26L3952.96,2189.26L3952.96,2183.76L3952.41,2183.76L3952.41,2189.26Z" style="fill:white;fill-rule:nonzero;"/>
                        </g>
                        <g transform="matrix(6.13137,-3.683,3.85787,5.85345,-28432.8,4332.95)">
                            <path d="M3957.04,2182.81C3956.2,2182.81 3955.49,2183.16 3955.08,2183.98L3955.08,2182.93L3954.53,2182.93L3954.53,2188.43L3955.08,2188.43L3955.08,2185.53C3955.08,2184.04 3955.92,2183.34 3957,2183.34C3958.03,2183.34 3958.62,2184 3958.62,2185.01L3958.62,2188.43L3959.18,2188.43L3959.18,2185.01C3959.18,2183.68 3958.35,2182.81 3957.04,2182.81Z" style="fill:white;fill-rule:nonzero;"/>
                        </g>
                        <g transform="matrix(5.34988,-4.66284,4.88423,5.10738,-27563,9858.12)">
                            <path d="M3963.99,2185.12L3960.92,2182.26L3963.88,2179.62L3963.11,2179.62L3960.33,2182.11L3960.33,2177.42L3959.78,2177.42L3959.78,2185.12L3960.33,2185.12L3960.33,2182.41L3963.24,2185.12L3963.99,2185.12Z" style="fill:white;fill-rule:nonzero;"/>
                        </g>
                        <g transform="matrix(3.21245,-6.19854,6.49285,3.06684,-22522.1,20413.2)">
                            <path d="M3973.02,2170.36L3973.02,2171.6C3972.56,2170.78 3971.71,2170.24 3970.66,2170.24C3969.1,2170.24 3967.81,2171.48 3967.81,2173.11C3967.81,2174.74 3969.1,2175.98 3970.66,2175.98C3971.71,2175.98 3972.56,2175.44 3973.02,2174.62L3973.02,2175.86L3973.58,2175.86L3973.58,2170.36L3973.02,2170.36ZM3970.7,2175.45C3969.39,2175.45 3968.37,2174.42 3968.37,2173.11C3968.37,2171.8 3969.39,2170.77 3970.7,2170.77C3972.01,2170.77 3973.02,2171.8 3973.02,2173.11C3973.02,2174.42 3972.01,2175.45 3970.7,2175.45Z" style="fill:white;fill-rule:nonzero;"/>
                        </g>
                        <g transform="matrix(2.30036,-6.55779,6.86915,2.19609,-19663.4,23722.3)">
                            <path d="M3971.44,2162.61C3971.68,2162.61 3971.88,2162.41 3971.88,2162.17C3971.88,2161.93 3971.68,2161.74 3971.44,2161.74C3971.2,2161.74 3971,2161.93 3971,2162.17C3971,2162.41 3971.2,2162.61 3971.44,2162.61ZM3971.16,2169.44L3971.71,2169.44L3971.71,2163.94L3971.16,2163.94L3971.16,2169.44Z" style="fill:white;fill-rule:nonzero;"/>
                        </g>
                        <g transform="matrix(1.68482,-6.72609,7.04544,1.60846,-17582.9,25659.1)">
                            <path d="M3972.47,2162.89L3972.47,2161.82L3971.91,2161.82L3971.91,2167.32L3972.47,2167.32L3972.47,2164.26C3972.47,2162.85 3973.36,2162.27 3974.3,2162.27L3974.3,2161.74C3973.55,2161.74 3972.84,2162.02 3972.47,2162.89Z" style="fill:white;fill-rule:nonzero;"/>
                        </g>
                        <g transform="matrix(1.17612,-6.82398,7.14798,1.12281,-15755.8,27086.1)">
                            <path d="M3972.99,2157.07C3973.24,2157.07 3973.43,2156.88 3973.43,2156.64C3973.43,2156.4 3973.24,2156.21 3972.99,2156.21C3972.75,2156.21 3972.55,2156.4 3972.55,2156.64C3972.55,2156.88 3972.75,2157.07 3972.99,2157.07ZM3972.72,2163.91L3973.27,2163.91L3973.27,2158.41L3972.72,2158.41L3972.72,2163.91Z" style="fill:white;fill-rule:nonzero;"/>
                        </g>
                        <g transform="matrix(-0.678175,-6.88537,7.21228,-0.647435,-8457.33,31093.7)">
                            <path d="M3973.6,2147.68C3973.85,2147.68 3974.04,2147.49 3974.04,2147.24C3974.04,2147.01 3973.85,2146.81 3973.6,2146.81C3973.36,2146.81 3973.16,2147.01 3973.16,2147.24C3973.16,2147.49 3973.36,2147.68 3973.6,2147.68ZM3973.33,2154.51L3973.88,2154.51L3973.88,2149.01L3973.33,2149.01L3973.33,2154.51Z" style="fill:white;fill-rule:nonzero;"/>
                        </g>
                        <g transform="matrix(-1.5261,-6.76053,7.08152,-1.45692,-4792.06,32322.4)">
                            <path d="M3975.76,2146.64C3974.91,2146.64 3974.2,2146.99 3973.79,2147.8L3973.79,2146.76L3973.24,2146.76L3973.24,2152.26L3973.79,2152.26L3973.79,2149.35C3973.79,2147.87 3974.63,2147.16 3975.71,2147.16C3976.75,2147.16 3977.33,2147.82 3977.33,2148.84L3977.33,2152.26L3977.89,2152.26L3977.89,2148.84C3977.89,2147.5 3977.07,2146.64 3975.76,2146.64Z" style="fill:white;fill-rule:nonzero;"/>
                        </g>
                        <g transform="matrix(-2.68411,-6.42349,6.72848,-2.56245,595.689,33296.9)">
                            <path d="M3976.13,2146.18L3973.07,2143.32L3976.02,2140.68L3975.25,2140.68L3972.47,2143.18L3972.47,2138.48L3971.92,2138.48L3971.92,2146.18L3972.47,2146.18L3972.47,2143.47L3975.39,2146.18L3976.13,2146.18Z" style="fill:white;fill-rule:nonzero;"/>
                        </g>
                        <g transform="matrix(-4.92577,-5.07089,5.31166,-4.7025,12528.5,32360.4)">
                            <path d="M3971.1,2129.54L3971.1,2130.78C3970.64,2129.96 3969.79,2129.42 3968.74,2129.42C3967.18,2129.42 3965.89,2130.66 3965.89,2132.29C3965.89,2133.92 3967.18,2135.16 3968.74,2135.16C3969.79,2135.16 3970.64,2134.62 3971.1,2133.8L3971.1,2135.04L3971.66,2135.04L3971.66,2129.54L3971.1,2129.54ZM3968.78,2134.63C3967.47,2134.63 3966.45,2133.6 3966.45,2132.29C3966.45,2130.98 3967.47,2129.95 3968.78,2129.95C3970.09,2129.95 3971.1,2130.98 3971.1,2132.29C3971.1,2133.6 3970.09,2134.63 3968.78,2134.63Z" style="fill:white;fill-rule:nonzero;"/>
                        </g>
                        <g transform="matrix(-5.63045,-4.35136,4.55796,-5.37523,16891.4,30859.5)">
                            <path d="M3961.58,2123.14C3961.82,2123.14 3962.02,2122.94 3962.02,2122.7C3962.02,2122.46 3961.82,2122.27 3961.58,2122.27C3961.34,2122.27 3961.14,2122.46 3961.14,2122.7C3961.14,2122.94 3961.34,2123.14 3961.58,2123.14ZM3961.31,2129.97L3961.86,2129.97L3961.86,2124.47L3961.31,2124.47L3961.31,2129.97Z" style="fill:white;fill-rule:nonzero;"/>
                        </g>
                        <g transform="matrix(-6.0347,-3.82577,4.00741,-5.76116,19648.1,29575.1)">
                            <path d="M3960.14,2124.1L3960.14,2123.02L3959.59,2123.02L3959.59,2128.52L3960.14,2128.52L3960.14,2125.47C3960.14,2124.06 3961.03,2123.47 3961.98,2123.47L3961.98,2122.95C3961.23,2122.95 3960.52,2123.23 3960.14,2124.1Z" style="fill:white;fill-rule:nonzero;"/>
                        </g>
                        <g transform="matrix(-6.33119,-3.36079,3.52036,-6.04421,21825.5,28302)">
                            <path d="M3956.93,2119.76C3957.18,2119.76 3957.38,2119.56 3957.38,2119.32C3957.38,2119.09 3957.18,2118.89 3956.93,2118.89C3956.69,2118.89 3956.49,2119.09 3956.49,2119.32C3956.49,2119.56 3956.69,2119.76 3956.93,2119.76ZM3956.66,2126.59L3957.21,2126.59L3957.21,2121.09L3956.66,2121.09L3956.66,2126.59Z" style="fill:white;fill-rule:nonzero;"/>
                        </g>
                        <g transform="matrix(-7.07912,-1.46752,1.5372,-6.75824,28882.9,22268.7)">
                            <path d="M3948.26,2116.13C3948.51,2116.13 3948.7,2115.93 3948.7,2115.69C3948.7,2115.46 3948.51,2115.26 3948.26,2115.26C3948.02,2115.26 3947.82,2115.46 3947.82,2115.69C3947.82,2115.93 3948.02,2116.13 3948.26,2116.13ZM3947.99,2122.96L3948.54,2122.96L3948.54,2117.46L3947.99,2117.46L3947.99,2122.96Z" style="fill:white;fill-rule:nonzero;"/>
                        </g>
                        <g transform="matrix(-7.22161,-0.544475,0.570326,-6.89427,31466.8,18904.4)">
                            <path d="M3948.33,2116.73C3947.48,2116.73 3946.78,2117.08 3946.36,2117.89L3946.36,2116.85L3945.81,2116.85L3945.81,2122.35L3946.36,2122.35L3946.36,2119.45C3946.36,2117.96 3947.21,2117.26 3948.29,2117.26C3949.32,2117.26 3949.9,2117.92 3949.9,2118.93L3949.9,2122.35L3950.46,2122.35L3950.46,2118.93C3950.46,2117.6 3949.64,2116.73 3948.33,2116.73Z" style="fill:white;fill-rule:nonzero;"/>
                        </g>
                        <g transform="matrix(-7.20207,0.743851,-0.779168,-6.87562,34163.7,13780.4)">
                            <path d="M3943.81,2121.87L3940.74,2119.01L3943.7,2116.37L3942.93,2116.37L3940.15,2118.87L3940.15,2114.17L3939.6,2114.17L3939.6,2121.87L3940.15,2121.87L3940.15,2119.16L3943.07,2121.87L3943.81,2121.87Z" style="fill:white;fill-rule:nonzero;"/>
                        </g>
                    </g>
                    <g id="A" transform="matrix(3.35907,0,0,2.01269,920.19,835.664)">
                        <g id="long-left" transform="matrix(0.0435151,0,0,0.0435151,54.0115,49.6384)">
                            <path d="M1631.85,160.842L1591.85,64L1439.85,432L1519.85,432L1631.85,160.842Z" style="fill:white;"/>
                        </g>
                        <g id="short-right" transform="matrix(-0.0435151,0,0,0.0435151,192.55,49.6384)">
                            <path d="M1542.98,376L1462.98,376L1439.85,432L1519.85,432L1542.98,376Z" style="fill:white;"/>
                        </g>
                        <g id="drop" transform="matrix(0.0418267,0,0,0.0422352,56.8611,50.3296)">
                            <path d="M1650.39,200C1650.39,200 1612.94,269.236 1612.94,298.909C1612.94,319.38 1629.72,336 1650.39,336C1671.07,336 1687.85,319.38 1687.85,298.909C1687.85,269.236 1650.39,200 1650.39,200Z" style="fill:rgb(125,102,255);"/>
                        </g>
                    </g>
                </g>
            </g>
        </g>
    </g>
</svg>
