<svg aria-hidden="true" style="position: absolute; width: 0; height: 0; overflow: hidden;" version="1.1" xmlns="http://www.w3.org/2000/svg" xmlns:xlink="http://www.w3.org/1999/xlink">
<defs>
<symbol id="airi-top-crease" viewBox="0 0 427 32">
<title>top-crease</title>
<path d="M443.061 27.351c0 0-51.536-4.629-82.531-27.35-65.866 36.354-376.944 27.35-376.944 27.35l0 4.649h459.475l-0-4.649z"></path>
</symbol>
<symbol id="airi-bottom-crease" viewBox="0 0 423 32">
<title>bottom-crease</title>
<path d="M439.417 0.131h-455.678c0 0 8.416 7.267 15.6 11.18 12.162 6.648 81.283-1.249 112.33 20.557 59.627-24.758 211.519-21.445 281.154-23.407 29.66-0.836 46.594-8.33 46.594-8.33z"></path>
</symbol>
<symbol id="airi-spinner" viewBox="0 0 33 32">
<title>spinner</title>
<path fill="#fff" style="fill: var(--color1, #fff)" d="M9.902 4.212l-0.257-0.513c0.371 0.252 0.851 0.308 1.306 0.1 0.68-0.31 0.976-1.080 0.639-1.753-0.335-0.67-1.149-0.934-1.829-0.624-0.455 0.207-0.711 0.599-0.739 1.032l-0.259-0.517-0.243 0.111 1.139 2.274 0.243-0.111zM9.853 1.65c0.568-0.259 1.225-0.030 1.494 0.507 0.271 0.542 0.045 1.173-0.523 1.432s-1.221 0.028-1.492-0.513c-0.269-0.537-0.047-1.167 0.521-1.426z"></path>
<path fill="#fff" style="fill: var(--color1, #fff)" d="M9.587 5.181c-0.096 0.062-0.121 0.189-0.057 0.28 0.062 0.087 0.195 0.112 0.291 0.050s0.121-0.189 0.060-0.276c-0.065-0.091-0.198-0.116-0.293-0.054zM7.859 2.518l-0.219 0.141 1.478 2.088 0.219-0.141-1.478-2.088z"></path>
<path fill="#fff" style="fill: var(--color1, #fff)" d="M8.125 4.832l0.33 0.382 0.204-0.16-1.678-1.946-0.204 0.16 0.934 1.083c0.427 0.495 0.277 0.963-0.072 1.237l0.162 0.188c0.274-0.215 0.453-0.528 0.325-0.943z"></path>
<path fill="#fff" style="fill: var(--color1, #fff)" d="M7.883 6.497c-0.087 0.079-0.086 0.206-0.006 0.285 0.076 0.076 0.209 0.082 0.295 0.003 0.083-0.076 0.086-0.206 0.010-0.282-0.080-0.079-0.216-0.082-0.299-0.006zM5.706 4.153l-0.191 0.174 1.828 1.818 0.191-0.174-1.828-1.818z"></path>
<path fill="#fff" style="fill: var(--color1, #fff)" d="M5.626 9.211c-0.059 0.095-0.025 0.22 0.074 0.276 0.095 0.054 0.227 0.022 0.285-0.073s0.025-0.22-0.070-0.274c-0.099-0.056-0.231-0.024-0.289 0.071zM2.873 7.506l-0.137 0.221 2.273 1.284 0.137-0.221-2.273-1.284z"></path>
<path fill="#fff" style="fill: var(--color1, #fff)" d="M4.298 10.481c0.162-0.352 0.145-0.715-0.131-1.040l0.457 0.191 0.106-0.231-2.419-1.011-0.106 0.231 1.28 0.535c0.651 0.272 0.8 0.759 0.591 1.213-0.198 0.432-0.603 0.559-1.051 0.371l-1.504-0.629-0.108 0.235 1.504 0.629c0.589 0.246 1.128 0.056 1.38-0.494z"></path>
<path fill="#fff" style="fill: var(--color1, #fff)" d="M0.694 12.894l1.691-1.046 0.884 1.61 0.090-0.342-0.839-1.518 2.189 0.524 0.064-0.244-3.587-0.858-0.064 0.244 1.258 0.301-1.599 0.997-0.088 0.333z"></path>
<path fill="#fff" style="fill: var(--color1, #fff)" d="M3.262 18.626l-0.592 0.061c0.368-0.25 0.581-0.664 0.527-1.147-0.081-0.711-0.739-1.232-1.517-1.152s-1.304 0.725-1.223 1.435c0.055 0.483 0.357 0.843 0.772 1.012l-0.592 0.061 0.029 0.255 2.626-0.272-0.029-0.255zM0.711 17.821c-0.068-0.597 0.371-1.112 0.996-1.177s1.17 0.349 1.238 0.946c0.068 0.597-0.372 1.108-0.997 1.172s-1.169-0.344-1.237-0.941z"></path>
<path fill="#fff" style="fill: var(--color1, #fff)" d="M4.111 19.27c0.028 0.107 0.144 0.174 0.256 0.147 0.107-0.025 0.177-0.136 0.15-0.243s-0.144-0.174-0.251-0.148c-0.112 0.026-0.182 0.137-0.154 0.244zM0.896 19.901l0.063 0.245 2.564-0.604-0.063-0.245-2.564 0.604z"></path>
<path fill="#fff" style="fill: var(--color1, #fff)" d="M3.261 20.471l0.491-0.161-0.084-0.234-2.498 0.818 0.084 0.234 1.385-0.454c0.64-0.21 1.049 0.093 1.195 0.5l0.236-0.077c-0.117-0.325-0.355-0.591-0.809-0.626z"></path>
<path fill="#fff" style="fill: var(--color1, #fff)" d="M4.813 21.293c0.045 0.101 0.171 0.149 0.277 0.106 0.102-0.041 0.152-0.162 0.107-0.263s-0.171-0.149-0.273-0.108c-0.106 0.043-0.157 0.163-0.111 0.265zM1.744 22.403l0.106 0.236 2.429-0.989-0.106-0.236-2.429 0.989z"></path>
<path fill="#fff" style="fill: var(--color1, #fff)" d="M6.677 24.272c0.072 0.086 0.207 0.101 0.297 0.032 0.086-0.066 0.102-0.194 0.030-0.28s-0.207-0.101-0.293-0.035c-0.090 0.068-0.106 0.197-0.034 0.283zM4.028 26.121l0.164 0.197 2.068-1.568-0.164-0.197-2.068 1.568z"></path>
<path fill="#fff" style="fill: var(--color1, #fff)" d="M7.443 25.902c-0.292-0.273-0.653-0.386-1.069-0.249l0.353-0.344-0.189-0.176-1.848 1.8 0.189 0.176 0.975-0.949c0.501-0.488 1.024-0.447 1.395-0.101 0.353 0.33 0.334 0.735-0.005 1.066l-1.149 1.119 0.192 0.18 1.149-1.119c0.447-0.435 0.455-0.986 0.009-1.403z"></path>
<path fill="#fff" style="fill: var(--color1, #fff)" d="M8.543 29.955l-0.447-1.874 1.888-0.237-0.306-0.198-1.779 0.231 1.267-1.777-0.218-0.142-2.077 2.913 0.218 0.142 0.729-1.023 0.43 1.775 0.294 0.191z"></path>
<path fill="#fff" style="fill: var(--color1, #fff)" d="M14.998 29.439l-0.117 0.557c-0.139-0.41-0.489-0.729-0.983-0.823-0.739-0.141-1.459 0.301-1.612 1.033s0.332 1.404 1.072 1.546c0.494 0.094 0.946-0.072 1.239-0.399l-0.117 0.557 0.264 0.050 0.518-2.471-0.264-0.050zM13.426 31.517c-0.617-0.118-1-0.672-0.877-1.261s0.701-0.96 1.318-0.842c0.617 0.118 0.995 0.671 0.872 1.26s-0.696 0.96-1.313 0.843z"></path>
<path fill="#fff" style="fill: var(--color1, #fff)" d="M15.852 28.838c0.115 0.005 0.211-0.083 0.216-0.193 0.005-0.105-0.082-0.201-0.197-0.206-0.12-0.005-0.215 0.082-0.22 0.188-0.005 0.11 0.082 0.205 0.202 0.21zM15.571 31.959l0.264 0.011 0.118-2.517-0.264-0.011-0.118 2.517z"></path>
<path fill="#fff" style="fill: var(--color1, #fff)" d="M16.795 29.958l-0.028-0.494-0.264 0.013 0.14 2.516 0.264-0.013-0.078-1.4c-0.036-0.645 0.376-0.932 0.832-0.955l-0.014-0.242c-0.36 0.018-0.698 0.168-0.853 0.575z"></path>
<path fill="#fff" style="fill: var(--color1, #fff)" d="M18.017 28.75c0.114-0.015 0.197-0.118 0.181-0.227-0.015-0.104-0.123-0.183-0.237-0.168-0.119 0.015-0.201 0.118-0.187 0.223 0.015 0.109 0.123 0.188 0.242 0.172zM18.322 31.868l0.262-0.034-0.353-2.497-0.262 0.034 0.353 2.497z"></path>
<path fill="#fff" style="fill: var(--color1, #fff)" d="M21.424 27.805c0.105-0.046 0.152-0.167 0.104-0.267s-0.173-0.141-0.278-0.095c-0.105 0.046-0.154 0.163-0.106 0.263s0.175 0.145 0.28 0.099zM22.668 30.703l0.24-0.105-1.101-2.29-0.24 0.105 1.101 2.29z"></path>
<path fill="#fff" style="fill: var(--color1, #fff)" d="M23.239 27.487c-0.341 0.205-0.541 0.514-0.497 0.932l-0.269-0.407-0.224 0.134 1.407 2.133 0.224-0.134-0.742-1.125c-0.381-0.578-0.219-1.054 0.22-1.318 0.419-0.251 0.827-0.139 1.086 0.252l0.875 1.326 0.228-0.137-0.875-1.326c-0.34-0.516-0.9-0.651-1.433-0.331z"></path>
<path fill="#fff" style="fill: var(--color1, #fff)" d="M27.629 27.405l-2.015-0.019 0.195-1.808-0.273 0.238-0.18 1.701-1.519-1.587-0.195 0.17 2.493 2.605 0.195-0.17-0.877-0.917 1.91 0.018 0.266-0.232z"></path>
<path fill="#fff" style="fill: var(--color1, #fff)" d="M28.713 21.278l0.534 0.252c-0.451 0.022-0.864 0.262-1.088 0.693-0.332 0.641-0.073 1.422 0.628 1.753s1.51 0.053 1.842-0.587c0.224-0.431 0.172-0.89-0.083-1.245l0.534 0.252 0.119-0.23-2.367-1.117-0.119 0.23zM30.41 23.265c-0.279 0.538-0.94 0.748-1.503 0.481s-0.79-0.894-0.511-1.432c0.279-0.538 0.937-0.743 1.501-0.477s0.792 0.89 0.513 1.428z"></path>
<path fill="#fff" style="fill: var(--color1, #fff)" d="M28.367 20.304c0.037-0.104-0.024-0.22-0.133-0.255s-0.226 0.024-0.263 0.129c-0.037 0.104 0.019 0.219 0.129 0.254s0.231-0.023 0.267-0.127zM31.435 21.419l0.084-0.239-2.505-0.8-0.084 0.239 2.505 0.8z"></path>
<path fill="#fff" style="fill: var(--color1, #fff)" d="M29.751 19.715l-0.5-0.114-0.063 0.25 2.569 0.586 0.063-0.25-1.429-0.326c-0.659-0.15-0.83-0.609-0.725-1.027l-0.248-0.056c-0.084 0.334-0.032 0.68 0.333 0.938z"></path>
<path fill="#fff" style="fill: var(--color1, #fff)" d="M28.896 18.234c0.020-0.113-0.056-0.213-0.169-0.231s-0.219 0.054-0.238 0.167c-0.019 0.108 0.056 0.213 0.169 0.231s0.219-0.058 0.238-0.167zM32.116 18.865l0.043-0.249-2.606-0.409-0.043 0.249 2.606 0.409z"></path>
<path fill="#fff" style="fill: var(--color1, #fff)" d="M29.024 14.726c-0.011-0.114-0.111-0.193-0.23-0.182-0.11 0.010-0.197 0.105-0.186 0.219 0.011 0.109 0.115 0.192 0.225 0.182 0.12-0.011 0.201-0.11 0.191-0.22zM32.302 14.556l-0.025-0.251-2.63 0.236 0.025 0.251 2.63-0.236z"></path>
<path fill="#fff" style="fill: var(--color1, #fff)" d="M29.32 12.948c0.086 0.381 0.322 0.665 0.744 0.77l-0.488 0.1 0.056 0.246 2.582-0.531-0.056-0.246-1.366 0.281c-0.695 0.143-1.113-0.165-1.222-0.649-0.105-0.466 0.146-0.789 0.625-0.888l1.606-0.33-0.057-0.251-1.606 0.33c-0.629 0.129-0.95 0.58-0.817 1.166z"></path>
<path fill="#fff" style="fill: var(--color1, #fff)" d="M30.768 8.981l-0.731 1.788-1.703-0.807 0.137 0.328 1.61 0.759-2.096 0.798 0.098 0.234 3.435-1.307-0.098-0.234-1.209 0.46 0.689-1.703-0.132-0.315z"></path>
<path fill="#fff" style="fill: var(--color1, #fff)" d="M25.154 5.83l0.437-0.386c-0.139 0.41-0.051 0.864 0.292 1.216 0.509 0.524 1.367 0.571 1.941 0.063s0.589-1.327 0.080-1.851c-0.343-0.353-0.811-0.47-1.25-0.369l0.437-0.386-0.183-0.188-1.937 1.713 0.183 0.188zM27.704 5.023c0.428 0.44 0.398 1.104-0.063 1.512s-1.157 0.386-1.585-0.054c-0.428-0.44-0.395-1.1 0.066-1.508s1.154-0.39 1.582 0.050z"></path>
<path fill="#fff" style="fill: var(--color1, #fff)" d="M24.090 5.806c-0.090-0.069-0.225-0.056-0.297 0.030s-0.055 0.211 0.034 0.28c0.090 0.069 0.222 0.059 0.294-0.026s0.058-0.214-0.031-0.284zM26.254 3.452l-0.205-0.159-1.662 1.959 0.205 0.159 1.662-1.959z"></path>
<path fill="#fff" style="fill: var(--color1, #fff)" d="M24.015 4.373l-0.287 0.412 0.22 0.139 1.461-2.099-0.22-0.139-0.81 1.164c-0.375 0.538-0.887 0.538-1.267 0.297l-0.138 0.198c0.3 0.19 0.658 0.263 1.042 0.027z"></path>
<path fill="#fff" style="fill: var(--color1, #fff)" d="M22.276 4.643c-0.105-0.056-0.236-0.020-0.292 0.076-0.054 0.092-0.016 0.217 0.089 0.272 0.101 0.053 0.231 0.018 0.285-0.074 0.056-0.096 0.019-0.221-0.082-0.274zM23.983 1.968l-0.231-0.122-1.284 2.202 0.231 0.122 1.284-2.202z"></path>
<path fill="#fff" style="fill: var(--color1, #fff)" d="M18.952 3.445c-0.117-0.024-0.227 0.047-0.251 0.154-0.023 0.103 0.045 0.211 0.163 0.235 0.113 0.023 0.227-0.047 0.25-0.15 0.024-0.107-0.049-0.216-0.162-0.24zM19.775 0.414l-0.258-0.053-0.56 2.462 0.258 0.053 0.56-2.462z"></path>
<path fill="#fff" style="fill: var(--color1, #fff)" d="M17.303 2.656c0.407 0.031 0.755-0.104 0.987-0.459l-0.039 0.475 0.263 0.020 0.208-2.512-0.263-0.020-0.11 1.325c-0.056 0.681-0.49 0.97-1.007 0.931-0.493-0.037-0.746-0.36-0.708-0.821l0.129-1.562-0.268-0.020-0.129 1.562c-0.050 0.607 0.309 1.034 0.937 1.082z"></path>
<path fill="#fff" style="fill: var(--color1, #fff)" d="M13.728 0.239l1.614 1.151-1.277 1.348 0.368-0.038 1.198-1.276 0.243 2.141 0.263-0.027-0.398-3.507-0.263 0.027 0.14 1.234-1.534-1.091-0.353 0.036z"></path>
<path fill="#fff" style="fill: var(--color1, #fff)" d="M18.44 9.592l-1.927-4.665-7.323 17.729h3.854l5.396-13.063z"></path>
<path fill="#fff" style="fill: var(--color1, #fff)" d="M18.866 19.957h3.854l1.114 2.698h-3.854l-1.114-2.698z"></path>
<path fill="#7d66ff" style="fill: var(--color2, #7d66ff)" d="M19.403 11.96c0 0-1.734 3.237-1.734 4.625 0 0.957 0.777 1.734 1.734 1.734s1.735-0.777 1.735-1.734c0-1.387-1.735-4.625-1.735-4.625z"></path>
</symbol>
<symbol id="airi-hand" viewBox="0 0 32 32">
<title>hand</title>
<path d="M27.779 4.452c1.195-1.547 2.976-3.615 4.715-4.772 1.6-1.060 7.413 6.057 4.736 9.122-3.061 3.504-12.8 11.236-15.509 14.527-0.139 0.175-0.021-0.018-0.501 0.659-0.309 0.434-0.96 0.429-1.259 0.192-1.387-1.107-2.635-5.419-1.547-6.708 3.339-3.927 7.157-10.147 9.365-13.020z"></path>
<path d="M22.759 20.165c0.017-0.222-0.99-4.709-0.99-4.709s-5.716-0.323-7.439-0.739c-0.341-0.082-1.845-0.359-2.332-0.213-0.444 0.132-0.498 0.905-0.402 1.496 0.214 1.322 0.271 1.953 0.398 2.54 0.102 0.477 0.003 0.887 0.126 1.235 0.419 1.179 1.16 1.361 1.698 1.544 0.452 1.279 0.678 2.404 0.611 3.379-0.061 0.874 2.196 3.733 3.824 2.556 2.434-1.76 4.357-5.18 4.507-7.089z"></path>
<path d="M19.675 19.732l-2.253-4.194c0 0-4.502-1.463-6.068-1.032-1.866 0.513-6.588 3.99-6.891 4.726-0.443 1.078-2.16 9.392-2.16 9.392s2.161 0.384 2.784-2.557c0.27-1.274 0.932-3.065 1.621-5.33 0.085-0.278 2.819-1.639 3.098-1.8 1.466-0.84 3-1.121 4.891-0.945s4.979 1.74 4.979 1.74z"></path>
<path d="M18.252 27.254c1.517-1.097 2.405-2.494 0.66-3.789-1.379-1.023-4.508-0.105-4.48 0.755 0.024 0.742-0.088 1.404-0.339 1.992-1.024 1.056-1.839 1.41-3.184 2.033-2.61 1.209-1.829 3.754-1.829 3.754s2.962-1.043 5.090-1.793c0.436-0.154 2.454-1.775 4.081-2.952z"></path>
<path d="M13.817 21.319c1.067-0.111 3.385 1.308 4.186 0.304 0.717-0.901 0.458-4.044 0.458-4.044s-4.277-0.116-5.999-0.531c-2.053-0.496-5.134 3.667-5.704 4.643-1.121 1.926 0.091 9.958 0.091 9.958s1.238-0.608 1.501-2.536c0.217-1.597 0.177-4.453 0.373-5.757 1.050-0.629 1.857-1.296 2.841-1.844 0.778-0.181 1.513-0.117 2.252-0.193z"></path>
<path d="M13.41 17.335c3.613-0.605 1.705-2.408 0.482-2.617-1.783-0.305-7.082-1.276-7.654-1.099-0.837 0.261-5.596 3.178-5.596 3.178s0.687 1.247 1.935 0.665c0.89-0.415 2.22-1.056 3.863-1.749 0.141-0.059 6.262 1.306 6.97 1.622z"></path>
</symbol>
</defs>
</svg>
<svg aria-hidden="true" focusable="false" style="width:0;height:0;position:absolute;">
  <linearGradient id="gradient-horizontal">
    <stop offset="0%" stop-color="var(--color-stop-1)" />
    <stop offset="50%" stop-color="var(--color-stop-2)" />
    <stop offset="100%" stop-color="var(--color-stop-3)" />
  </linearGradient>
  <linearGradient id="gradient-vertical" x2="0" y2="1">
    <stop offset="0%" stop-color="var(--color-stop-1)" />
    <stop offset="50%" stop-color="var(--color-stop-2)" />
    <stop offset="100%" stop-color="var(--color-stop-3)" />
  </linearGradient>
</svg>